<svg xmlns="http://www.w3.org/2000/svg" xmlns:xlink="http://www.w3.org/1999/xlink" width="500" zoomAndPan="magnify" viewBox="0 0 375 374.999991" height="500" preserveAspectRatio="xMidYMid meet" version="1.0"><defs><clipPath id="76d873b0f8"><path d="M 203 22.839844 L 293 22.839844 L 293 42 L 203 42 Z M 203 22.839844 " clip-rule="nonzero"/></clipPath><clipPath id="caa058acf2"><path d="M 59 289 L 125 289 L 125 352.089844 L 59 352.089844 Z M 59 289 " clip-rule="nonzero"/></clipPath><clipPath id="846269edd9"><path d="M 305 286 L 371 286 L 371 352.089844 L 305 352.089844 Z M 305 286 " clip-rule="nonzero"/></clipPath></defs><rect x="-37.5" width="450" fill="#ffffff" y="-37.499999" height="449.999989" fill-opacity="1"/><rect x="-37.5" width="450" fill="#ffffff" y="-37.499999" height="449.999989" fill-opacity="1"/><path fill="#f24848" d="M 202.257812 133.957031 C 202.257812 135.640625 200.894531 137.007812 199.207031 137.007812 L 185.710938 137.007812 C 178.703125 156.890625 178.179688 174.671875 184.207031 189.910156 C 194.335938 215.503906 222.632812 232.945312 256.292969 234.351562 C 257.867188 234.414062 259.25 235.789062 259.324219 237.363281 L 262.199219 289.199219 C 262.460938 293.847656 265.773438 297.734375 270.082031 298.429688 C 273 298.902344 275.828125 298.105469 278.007812 296.167969 C 280.152344 294.261719 281.3125 291.523438 281.1875 288.652344 L 279.824219 257.207031 C 279.824219 257.199219 279.824219 257.191406 279.824219 257.179688 L 278.253906 221.054688 C 270.835938 214.925781 262.917969 209.304688 254.695312 204.339844 C 245.757812 198.941406 236.328125 194.230469 226.664062 190.328125 C 226.484375 190.257812 226.316406 190.167969 226.15625 190.066406 C 225.695312 189.769531 225.277344 189.304688 225.035156 188.816406 C 224.757812 188.269531 224.644531 187.589844 224.726562 186.984375 L 228.21875 141.5 L 215.351562 132.921875 C 213.949219 131.984375 213.570312 130.097656 214.507812 128.691406 C 215.4375 127.292969 217.335938 126.910156 218.734375 127.847656 L 239.367188 141.605469 L 280.140625 141.605469 C 280.617188 141.605469 281.089844 141.539062 281.5625 141.464844 C 279.507812 139.601562 278.195312 136.9375 278.195312 133.953125 C 278.195312 130.542969 279.894531 127.539062 282.46875 125.691406 C 282.132812 125.621094 281.796875 125.527344 281.453125 125.5 L 245.421875 122.730469 C 244.191406 122.636719 243.035156 121.722656 242.65625 120.546875 C 241.164062 115.726562 238.921875 111.25 235.984375 107.207031 C 234.1875 104.738281 232.089844 102.488281 229.828125 100.417969 C 227.726562 100.8125 225.570312 101.039062 223.359375 101.039062 C 218.765625 101.039062 214.386719 100.128906 210.359375 98.519531 C 205.644531 103.023438 201.429688 107.875 197.796875 113.070312 L 202.785156 113.070312 C 204.46875 113.070312 205.832031 114.4375 205.832031 116.121094 C 205.832031 117.804688 204.46875 119.167969 202.785156 119.167969 L 193.902344 119.167969 C 191.683594 122.933594 189.714844 126.847656 188.035156 130.90625 L 199.203125 130.90625 C 200.894531 130.910156 202.257812 132.277344 202.257812 133.957031 Z M 202.257812 133.957031 " fill-opacity="1" fill-rule="nonzero"/><path fill="#f24848" d="M 223.351562 94.949219 C 239.367188 94.949219 252.398438 81.914062 252.398438 65.894531 C 252.398438 59.308594 250.144531 52.957031 246.066406 47.832031 L 200.664062 47.832031 C 196.515625 52.992188 194.300781 59.199219 194.300781 65.894531 C 194.296875 81.914062 207.332031 94.949219 223.351562 94.949219 Z M 223.351562 94.949219 " fill-opacity="1" fill-rule="nonzero"/><path fill="#f24848" d="M 108.910156 198.777344 C 107.195312 199.652344 103.132812 202.132812 102.4375 206.191406 C 102.300781 206.992188 102.28125 207.75 102.371094 208.5 C 103.332031 216.257812 117.171875 224.675781 138.671875 225.328125 L 213.042969 229.109375 C 200.082031 222.207031 189.558594 212.472656 182.734375 200.707031 C 170.777344 196.519531 158.3125 194.28125 145.660156 194.085938 C 129.136719 193.824219 117.214844 194.515625 108.910156 198.777344 Z M 108.910156 198.777344 " fill-opacity="1" fill-rule="nonzero"/><path fill="#f24848" d="M 98.65625 215.484375 L 38.195312 215.484375 L 38.195312 223.65625 L 107.671875 223.65625 C 103.714844 221.316406 100.617188 218.558594 98.65625 215.484375 Z M 98.65625 215.484375 " fill-opacity="1" fill-rule="nonzero"/><path fill="#f24848" d="M 88.644531 183.378906 L 54.066406 183.378906 L 49.480469 209.386719 L 96.347656 209.386719 C 96.339844 209.335938 96.324219 209.289062 96.316406 209.242188 C 96.152344 207.90625 96.1875 206.527344 96.425781 205.152344 C 97.246094 200.386719 100.785156 196.082031 106.132812 193.347656 C 115.132812 188.734375 127.410156 187.929688 139.800781 187.933594 L 145.640625 154.839844 L 59.105469 154.839844 L 58.292969 159.441406 L 77.949219 159.441406 C 79.632812 159.441406 80.996094 160.808594 80.996094 162.492188 C 80.996094 164.175781 79.632812 165.539062 77.949219 165.539062 L 57.214844 165.539062 L 55.144531 177.277344 L 88.644531 177.277344 C 90.332031 177.277344 91.695312 178.644531 91.695312 180.328125 C 91.695312 182.011719 90.328125 183.378906 88.644531 183.378906 Z M 88.644531 183.378906 " fill-opacity="1" fill-rule="nonzero"/><path fill="#f24848" d="M 110.5625 315.882812 C 110.5625 316.554688 110.53125 317.222656 110.472656 317.890625 C 110.414062 318.558594 110.324219 319.222656 110.207031 319.878906 C 110.089844 320.539062 109.945312 321.1875 109.769531 321.832031 C 109.597656 322.472656 109.394531 323.105469 109.164062 323.726562 C 108.933594 324.34375 108.675781 324.953125 108.394531 325.542969 C 108.109375 326.136719 107.800781 326.710938 107.46875 327.269531 C 107.132812 327.828125 106.777344 328.363281 106.394531 328.882812 C 106.015625 329.402344 105.609375 329.898438 105.1875 330.375 C 104.761719 330.847656 104.316406 331.296875 103.851562 331.722656 C 103.386719 332.148438 102.90625 332.550781 102.40625 332.921875 C 101.90625 333.296875 101.390625 333.640625 100.859375 333.957031 C 100.332031 334.273438 99.789062 334.558594 99.234375 334.816406 C 98.675781 335.074219 98.113281 335.300781 97.539062 335.492188 C 96.960938 335.6875 96.378906 335.851562 95.789062 335.984375 C 95.199219 336.113281 94.605469 336.210938 94.007812 336.277344 C 93.410156 336.34375 92.8125 336.375 92.210938 336.375 C 91.609375 336.375 91.011719 336.34375 90.410156 336.277344 C 89.8125 336.210938 89.21875 336.113281 88.628906 335.984375 C 88.039062 335.851562 87.457031 335.6875 86.882812 335.492188 C 86.308594 335.300781 85.742188 335.074219 85.1875 334.816406 C 84.632812 334.558594 84.089844 334.273438 83.558594 333.957031 C 83.03125 333.640625 82.515625 333.296875 82.015625 332.921875 C 81.515625 332.550781 81.035156 332.148438 80.570312 331.722656 C 80.105469 331.296875 79.660156 330.847656 79.234375 330.375 C 78.808594 329.898438 78.40625 329.402344 78.023438 328.882812 C 77.644531 328.363281 77.285156 327.828125 76.953125 327.269531 C 76.617188 326.710938 76.308594 326.136719 76.027344 325.542969 C 75.742188 324.949219 75.488281 324.34375 75.257812 323.726562 C 75.027344 323.105469 74.824219 322.472656 74.648438 321.832031 C 74.476562 321.1875 74.328125 320.539062 74.210938 319.878906 C 74.09375 319.222656 74.007812 318.558594 73.949219 317.890625 C 73.890625 317.222656 73.859375 316.554688 73.859375 315.882812 C 73.859375 315.210938 73.890625 314.542969 73.949219 313.875 C 74.007812 313.207031 74.09375 312.542969 74.210938 311.882812 C 74.328125 311.226562 74.476562 310.574219 74.648438 309.933594 C 74.824219 309.289062 75.027344 308.660156 75.257812 308.039062 C 75.488281 307.417969 75.742188 306.8125 76.027344 306.222656 C 76.308594 305.628906 76.617188 305.054688 76.953125 304.496094 C 77.285156 303.9375 77.644531 303.398438 78.023438 302.882812 C 78.40625 302.363281 78.808594 301.867188 79.234375 301.390625 C 79.660156 300.917969 80.105469 300.464844 80.570312 300.039062 C 81.035156 299.613281 81.515625 299.214844 82.015625 298.84375 C 82.515625 298.46875 83.03125 298.125 83.558594 297.808594 C 84.089844 297.492188 84.632812 297.207031 85.1875 296.949219 C 85.742188 296.691406 86.308594 296.464844 86.882812 296.269531 C 87.457031 296.074219 88.039062 295.914062 88.628906 295.78125 C 89.21875 295.652344 89.8125 295.554688 90.410156 295.488281 C 91.011719 295.421875 91.609375 295.386719 92.210938 295.386719 C 92.8125 295.386719 93.410156 295.421875 94.007812 295.488281 C 94.605469 295.554688 95.199219 295.652344 95.789062 295.78125 C 96.378906 295.914062 96.960938 296.074219 97.539062 296.269531 C 98.113281 296.464844 98.675781 296.691406 99.234375 296.949219 C 99.789062 297.207031 100.332031 297.492188 100.859375 297.808594 C 101.390625 298.125 101.90625 298.46875 102.40625 298.84375 C 102.90625 299.214844 103.386719 299.613281 103.851562 300.039062 C 104.316406 300.464844 104.761719 300.917969 105.1875 301.390625 C 105.609375 301.867188 106.015625 302.363281 106.394531 302.882812 C 106.777344 303.398438 107.132812 303.9375 107.46875 304.496094 C 107.800781 305.054688 108.109375 305.628906 108.394531 306.222656 C 108.675781 306.8125 108.933594 307.417969 109.164062 308.039062 C 109.394531 308.660156 109.597656 309.289062 109.769531 309.933594 C 109.945312 310.574219 110.089844 311.226562 110.207031 311.882812 C 110.324219 312.542969 110.414062 313.207031 110.472656 313.875 C 110.53125 314.542969 110.5625 315.210938 110.5625 315.882812 Z M 110.5625 315.882812 " fill-opacity="1" fill-rule="nonzero"/><g clip-path="url(#76d873b0f8)"><path fill="#f24848" d="M 292.453125 37.648438 C 292.453125 35.394531 290.621094 33.5625 288.367188 33.5625 L 259.839844 33.5625 C 258.152344 33.5625 256.789062 32.195312 256.789062 30.511719 L 256.789062 22.859375 L 211.914062 22.859375 L 203.832031 41.734375 L 288.371094 41.734375 C 290.621094 41.734375 292.453125 39.902344 292.453125 37.648438 Z M 292.453125 37.648438 " fill-opacity="1" fill-rule="nonzero"/></g><path fill="#f24848" d="M 196.160156 269.425781 C 196.511719 256.859375 189.796875 245.464844 182.980469 239.742188 C 167.675781 226.894531 135.449219 231.589844 100.878906 251.703125 C 99.417969 252.542969 97.554688 252.054688 96.710938 250.601562 C 95.863281 249.144531 96.355469 247.277344 97.8125 246.433594 C 109.761719 239.484375 121.371094 234.332031 132.222656 230.988281 C 126.5 230.402344 121.203125 229.261719 116.527344 227.664062 L 111.058594 229.585938 C 100.882812 233.578125 91.605469 239.375 83.582031 246.785156 C 77.949219 251.988281 73.523438 257.5 69.96875 262.902344 L 113.609375 262.902344 C 115.296875 262.902344 116.660156 264.261719 116.660156 265.949219 C 116.660156 267.636719 115.296875 269 113.609375 269 L 66.253906 269 C 63.828125 273.414062 61.984375 277.628906 60.601562 281.386719 L 177.714844 301.519531 C 182.992188 297.601562 195.675781 286.449219 196.160156 269.425781 Z M 196.160156 269.425781 " fill-opacity="1" fill-rule="nonzero"/><path fill="#f24848" d="M 307.019531 275.324219 C 312.160156 264.625 316.21875 251.445312 313.855469 198.304688 C 313.277344 185.304688 312.457031 172.484375 311.410156 160.046875 L 305.445312 174.367188 C 304.972656 175.503906 303.859375 176.242188 302.632812 176.242188 L 298.546875 176.242188 L 298.546875 208.863281 C 298.546875 230.957031 295.921875 240.191406 291.070312 249.511719 C 289.597656 252.339844 287.855469 255.066406 285.9375 257.671875 L 287.273438 288.386719 C 287.4375 292.105469 286.265625 295.675781 284.039062 298.5625 L 290.65625 298.5625 C 297.464844 291.582031 302.964844 283.765625 307.019531 275.324219 Z M 307.019531 275.324219 " fill-opacity="1" fill-rule="nonzero"/><path fill="#f24848" d="M 338.296875 336.375 C 348.417969 336.375 356.652344 327.179688 356.652344 315.882812 C 356.652344 304.582031 348.421875 295.386719 338.296875 295.386719 C 328.183594 295.386719 319.949219 304.582031 319.949219 315.882812 C 319.949219 327.179688 328.183594 336.375 338.296875 336.375 Z M 338.296875 336.375 " fill-opacity="1" fill-rule="nonzero"/><path fill="#f24848" d="M 322.035156 287.691406 C 321.5625 288.972656 321.082031 290.269531 320.578125 291.570312 C 327.890625 286.699219 337.207031 282.382812 348.566406 280.761719 C 351.472656 280.347656 354.410156 280.203125 357.355469 280.179688 C 357.796875 280.089844 358.242188 280.082031 358.6875 280.1875 C 364.121094 280.25 369.578125 280.878906 374.917969 282.230469 C 371.882812 277.671875 366.726562 272.039062 358.566406 268.777344 C 347.308594 264.265625 337.246094 266.925781 332.894531 268.546875 C 326.867188 274.59375 324.503906 280.957031 322.035156 287.691406 Z M 322.035156 287.691406 " fill-opacity="1" fill-rule="nonzero"/><path fill="#f24848" d="M 305.683594 133.957031 C 305.683594 137.957031 303.347656 141.386719 299.988281 143.054688 L 303.769531 155.664062 L 317.988281 135.753906 C 318.039062 135.679688 318.105469 135.625 318.164062 135.558594 C 318.214844 135.5 318.265625 135.445312 318.320312 135.386719 C 318.570312 135.136719 318.855469 134.929688 319.171875 134.777344 C 319.1875 134.769531 319.199219 134.753906 319.214844 134.75 C 319.25 134.734375 319.289062 134.738281 319.324219 134.722656 C 319.628906 134.597656 319.953125 134.519531 320.289062 134.5 C 320.339844 134.5 320.386719 134.484375 320.4375 134.484375 C 320.449219 134.484375 320.457031 134.480469 320.46875 134.480469 L 331.6875 134.480469 L 331.6875 112.039062 L 312.332031 112.039062 L 312.796875 115.75 C 313.003906 117.417969 311.820312 118.945312 310.148438 119.152344 C 310.019531 119.164062 309.894531 119.175781 309.769531 119.175781 C 308.253906 119.175781 306.9375 118.046875 306.746094 116.503906 L 306.730469 116.347656 L 298.730469 124.351562 C 302.753906 125.707031 305.683594 129.476562 305.683594 133.957031 Z M 305.683594 133.957031 " fill-opacity="1" fill-rule="nonzero"/><path fill="#f24848" d="M 295.503906 138.042969 C 297.753906 138.042969 299.585938 136.210938 299.585938 133.957031 C 299.585938 131.707031 297.753906 129.875 295.503906 129.875 L 288.367188 129.875 C 286.117188 129.875 284.285156 131.707031 284.285156 133.957031 C 284.285156 136.210938 286.117188 138.042969 288.367188 138.042969 Z M 295.503906 138.042969 " fill-opacity="1" fill-rule="nonzero"/><path fill="#f24848" d="M 181.625 325.820312 C 182.613281 327.691406 183.1875 329.9375 183.1875 332.386719 C 183.1875 334.0625 182.921875 335.644531 182.4375 337.074219 C 192.640625 335.691406 202.765625 333.597656 212.632812 330.785156 C 221.707031 328.199219 230.632812 325.007812 239.3125 321.25 C 231.949219 321.566406 224.570312 321.980469 217.25 322.492188 C 205.402344 323.316406 193.46875 324.476562 181.625 325.820312 Z M 181.625 325.820312 " fill-opacity="1" fill-rule="nonzero"/><path fill="#f24848" d="M 173.710938 326.671875 C 172.117188 326.671875 170.328125 329.117188 170.328125 332.386719 C 170.328125 335.613281 172.0625 338.027344 173.644531 338.097656 C 173.769531 338.082031 173.894531 338.066406 174.019531 338.054688 C 175.527344 337.769531 177.09375 335.457031 177.09375 332.390625 C 177.089844 329.117188 175.304688 326.671875 173.710938 326.671875 Z M 173.710938 326.671875 " fill-opacity="1" fill-rule="nonzero"/><g clip-path="url(#caa058acf2)"><path fill="#f24848" d="M 108.121094 295.734375 C 113.335938 300.617188 116.65625 307.828125 116.65625 315.882812 C 116.65625 330.546875 105.6875 342.472656 92.207031 342.472656 C 78.726562 342.472656 67.757812 330.546875 67.757812 315.882812 C 67.757812 304.875 73.941406 295.40625 82.730469 291.375 L 70.222656 289.222656 C 63.46875 296.078125 59.589844 305.6875 59.589844 315.882812 C 59.589844 335.835938 74.21875 352.070312 92.203125 352.070312 C 110.1875 352.070312 124.820312 335.835938 124.820312 315.882812 C 124.820312 309.507812 123.261719 303.324219 120.414062 297.851562 Z M 108.121094 295.734375 " fill-opacity="1" fill-rule="nonzero"/></g><path fill="#f24848" d="M 173.335938 320.597656 C 187.726562 318.828125 202.355469 317.417969 216.828125 316.40625 C 219.683594 316.207031 222.5625 316.074219 225.4375 315.902344 L 127.746094 299.109375 C 129.828125 304.375 130.921875 310.074219 130.921875 315.882812 C 130.921875 320.710938 130.144531 325.332031 128.769531 329.660156 L 165.761719 325.886719 C 167.355469 322.824219 170.070312 320.820312 173.234375 320.632812 C 173.269531 320.625 173.296875 320.601562 173.335938 320.597656 Z M 173.335938 320.597656 " fill-opacity="1" fill-rule="nonzero"/><g clip-path="url(#846269edd9)"><path fill="#f24848" d="M 356.894531 286.210938 C 354.394531 286.253906 351.898438 286.441406 349.433594 286.796875 C 345.675781 287.332031 342.199219 288.234375 338.921875 289.328125 C 352.117188 289.691406 362.75 301.449219 362.75 315.882812 C 362.75 330.546875 351.78125 342.472656 338.296875 342.472656 C 324.816406 342.472656 313.851562 330.546875 313.851562 315.882812 C 313.851562 310.441406 315.367188 305.386719 317.953125 301.167969 C 316.355469 302.507812 314.871094 303.832031 313.589844 305.101562 C 313.136719 305.75 312.679688 306.394531 312.171875 307.050781 C 310.277344 309.5 308.117188 311.761719 305.757812 313.882812 C 305.726562 314.546875 305.679688 315.210938 305.679688 315.886719 C 305.679688 335.839844 320.3125 352.074219 338.296875 352.074219 C 356.28125 352.074219 370.910156 335.839844 370.910156 315.886719 C 370.914062 303.992188 365.671875 292.996094 356.894531 286.210938 Z M 356.894531 286.210938 " fill-opacity="1" fill-rule="nonzero"/></g><path fill="#f24848" d="M 316.308594 285.585938 C 318.957031 278.371094 321.699219 270.90625 329.023438 263.777344 C 329.027344 263.773438 329.03125 263.769531 329.035156 263.761719 C 329.035156 263.761719 329.039062 263.757812 329.042969 263.753906 C 333.695312 259.226562 339.335938 255.664062 345.832031 253.148438 C 344.542969 231.222656 341.019531 209.402344 335.355469 188.25 C 331.296875 173.105469 326.035156 158.164062 319.796875 143.707031 L 316.472656 148.359375 C 318.019531 164.320312 319.191406 181.015625 319.949219 198.027344 C 322.15625 247.625 319.039062 264.382812 312.515625 277.957031 C 307.992188 287.386719 301.789062 296.066406 294.089844 303.765625 C 293.519531 304.339844 292.746094 304.660156 291.9375 304.660156 L 196.035156 304.660156 L 284.46875 319.859375 C 294.21875 315.894531 301.917969 310.328125 307.359375 303.308594 C 312.003906 297.320312 314.191406 291.359375 316.308594 285.585938 Z M 316.308594 285.585938 " fill-opacity="1" fill-rule="nonzero"/><path fill="#f24848" d="M 256.113281 289.539062 L 255.96875 286.957031 C 251.800781 288.152344 247.644531 288.734375 243.644531 288.734375 C 233.011719 288.738281 223.527344 284.636719 218.121094 277.042969 C 213.769531 270.929688 212.320312 262.503906 214.039062 253.316406 C 215.503906 245.511719 219.398438 239.664062 223.007812 235.714844 L 185.144531 233.789062 C 185.730469 234.21875 186.347656 234.605469 186.898438 235.066406 C 194.257812 241.242188 202.691406 253.992188 202.253906 269.59375 C 201.894531 282.265625 195.804688 292.019531 189.917969 298.5625 L 259.503906 298.5625 C 257.5625 296.039062 256.300781 292.929688 256.113281 289.539062 Z M 256.113281 289.539062 " fill-opacity="1" fill-rule="nonzero"/><path fill="#f24848" d="M 292.453125 87.585938 C 292.453125 93.667969 288.953125 98.804688 284.800781 98.804688 C 280.652344 98.804688 277.148438 93.664062 277.148438 87.585938 C 277.148438 81.507812 280.652344 76.367188 284.800781 76.367188 C 288.953125 76.367188 292.453125 81.503906 292.453125 87.585938 Z M 292.453125 87.585938 " fill-opacity="1" fill-rule="nonzero"/><path fill="#f24848" d="M 302.222656 90.636719 L 303.507812 90.636719 L 305.042969 102.886719 C 305.234375 104.429688 306.546875 105.558594 308.0625 105.558594 C 308.1875 105.558594 308.316406 105.554688 308.445312 105.535156 C 310.117188 105.328125 311.300781 103.804688 311.089844 102.132812 L 309.226562 87.207031 C 309.035156 85.683594 307.738281 84.539062 306.203125 84.539062 L 302.222656 84.539062 C 300.535156 84.539062 299.171875 85.902344 299.171875 87.585938 C 299.171875 89.269531 300.535156 90.636719 302.222656 90.636719 Z M 302.222656 90.636719 " fill-opacity="1" fill-rule="nonzero"/><path fill="#f24848" d="M 138.578125 40.695312 L 181.371094 40.695312 C 183.058594 40.695312 184.421875 39.332031 184.421875 37.648438 C 184.421875 35.964844 183.058594 34.597656 181.371094 34.597656 L 138.578125 34.597656 C 136.890625 34.597656 135.527344 35.964844 135.527344 37.648438 C 135.527344 39.332031 136.890625 40.695312 138.578125 40.695312 Z M 138.578125 40.695312 " fill-opacity="1" fill-rule="nonzero"/><path fill="#f24848" d="M 67.246094 58.53125 L 177.804688 58.53125 C 179.492188 58.53125 180.855469 57.164062 180.855469 55.484375 C 180.855469 53.800781 179.492188 52.433594 177.804688 52.433594 L 67.246094 52.433594 C 65.5625 52.433594 64.199219 53.800781 64.199219 55.484375 C 64.199219 57.164062 65.5625 58.53125 67.246094 58.53125 Z M 67.246094 58.53125 " fill-opacity="1" fill-rule="nonzero"/><path fill="#f24848" d="M 99.34375 91.671875 C 97.660156 91.671875 96.296875 93.039062 96.296875 94.722656 C 96.296875 96.402344 97.660156 97.769531 99.34375 97.769531 L 170.671875 97.769531 C 172.359375 97.769531 173.722656 96.402344 173.722656 94.722656 C 173.722656 93.039062 172.359375 91.671875 170.671875 91.671875 Z M 99.34375 91.671875 " fill-opacity="1" fill-rule="nonzero"/><path fill="#f24848" d="M 56.546875 119.171875 L 183.535156 119.171875 C 185.21875 119.171875 186.582031 117.804688 186.582031 116.125 C 186.582031 114.441406 185.21875 113.074219 183.535156 113.074219 L 56.546875 113.074219 C 54.859375 113.074219 53.496094 114.441406 53.496094 116.125 C 53.496094 117.804688 54.859375 119.171875 56.546875 119.171875 Z M 56.546875 119.171875 " fill-opacity="1" fill-rule="nonzero"/><path fill="#f24848" d="M 175.636719 130.910156 L 113.609375 130.910156 C 111.921875 130.910156 110.5625 132.277344 110.5625 133.957031 C 110.5625 135.640625 111.921875 137.007812 113.609375 137.007812 L 175.640625 137.007812 C 177.328125 137.007812 178.6875 135.640625 178.6875 133.957031 C 178.6875 132.277344 177.324219 130.910156 175.636719 130.910156 Z M 175.636719 130.910156 " fill-opacity="1" fill-rule="nonzero"/><path fill="#f24848" d="M 17.316406 165.542969 L 47.699219 165.542969 C 49.382812 165.542969 50.746094 164.179688 50.746094 162.496094 C 50.746094 160.8125 49.382812 159.445312 47.699219 159.445312 L 17.316406 159.445312 C 15.632812 159.445312 14.269531 160.8125 14.269531 162.496094 C 14.269531 164.179688 15.632812 165.542969 17.316406 165.542969 Z M 17.316406 165.542969 " fill-opacity="1" fill-rule="nonzero"/><path fill="#f24848" d="M 47.652344 180.332031 C 47.652344 178.648438 46.289062 177.28125 44.605469 177.28125 L 28.011719 177.28125 C 26.328125 177.28125 24.964844 178.648438 24.964844 180.332031 C 24.964844 182.011719 26.328125 183.378906 28.011719 183.378906 L 44.601562 183.378906 C 46.289062 183.378906 47.652344 182.015625 47.652344 180.332031 Z M 47.652344 180.332031 " fill-opacity="1" fill-rule="nonzero"/><path fill="#f24848" d="M 56.546875 262.894531 L 42.28125 262.894531 C 40.59375 262.894531 39.230469 264.257812 39.230469 265.941406 C 39.230469 267.628906 40.59375 268.992188 42.28125 268.992188 L 56.546875 268.992188 C 58.230469 268.992188 59.59375 267.628906 59.59375 265.941406 C 59.59375 264.257812 58.230469 262.894531 56.546875 262.894531 Z M 56.546875 262.894531 " fill-opacity="1" fill-rule="nonzero"/><path fill="#f24848" d="M 42.28125 305.699219 L 24.445312 305.699219 C 22.757812 305.699219 21.394531 307.0625 21.394531 308.75 C 21.394531 310.433594 22.757812 311.796875 24.445312 311.796875 L 42.28125 311.796875 C 43.964844 311.796875 45.328125 310.433594 45.328125 308.75 C 45.328125 307.0625 43.964844 305.699219 42.28125 305.699219 Z M 42.28125 305.699219 " fill-opacity="1" fill-rule="nonzero"/><path fill="#f24848" d="M 24.449219 241.488281 C 22.761719 241.488281 21.398438 242.851562 21.398438 244.539062 C 21.398438 246.222656 22.761719 247.585938 24.449219 247.585938 L 52.980469 247.585938 C 54.664062 247.585938 56.027344 246.222656 56.027344 244.539062 C 56.027344 242.851562 54.664062 241.488281 52.980469 241.488281 Z M 24.449219 241.488281 " fill-opacity="1" fill-rule="nonzero"/><path fill="#f24848" d="M 34.628906 198.164062 C 34.628906 196.480469 33.265625 195.117188 31.578125 195.117188 L 3.046875 195.117188 C 1.363281 195.117188 0 196.480469 0 198.164062 C 0 199.851562 1.363281 201.214844 3.046875 201.214844 L 31.578125 201.214844 C 33.265625 201.214844 34.628906 199.851562 34.628906 198.164062 Z M 34.628906 198.164062 " fill-opacity="1" fill-rule="nonzero"/></svg>