<svg xmlns="http://www.w3.org/2000/svg" xmlns:xlink="http://www.w3.org/1999/xlink" width="500" zoomAndPan="magnify" viewBox="0 0 375 374.999991" height="500" preserveAspectRatio="xMidYMid meet" version="1.0"><defs><clipPath id="27548fcbc2"><path d="M 3.449219 37.5 L 371.699219 37.5 L 371.699219 337.5 L 3.449219 337.5 Z M 3.449219 37.5 " clip-rule="nonzero"/></clipPath></defs><rect x="-37.5" width="450" fill="#ffffff" y="-37.499999" height="449.999989" fill-opacity="1"/><rect x="-37.5" width="450" fill="#ffffff" y="-37.499999" height="449.999989" fill-opacity="1"/><g clip-path="url(#27548fcbc2)"><path fill="#f24848" d="M 371.472656 116.652344 C 371.46875 110.359375 368.992188 104.808594 364.3125 100.601562 L 308.363281 50.308594 C 301.402344 44.054688 292.628906 37.660156 280.289062 37.660156 C 280.285156 37.660156 280.28125 37.660156 280.277344 37.660156 C 267.933594 37.667969 259.15625 44.066406 252.203125 50.328125 L 196.285156 100.660156 C 191.609375 104.871094 189.136719 110.421875 189.140625 116.71875 L 189.164062 181.316406 L 152.03125 181.316406 C 158.753906 167.359375 163.433594 145.3125 158.175781 128.800781 C 154.476562 117.183594 146.328125 109.523438 134.613281 106.652344 C 133.117188 106.285156 131.539062 106.53125 130.230469 107.339844 C 128.917969 108.144531 127.984375 109.445312 127.640625 110.945312 C 127.003906 113.714844 126.410156 116.3125 125.859375 118.753906 C 118.949219 149.175781 118.0625 153.085938 98.980469 165.554688 C 85.5 174.367188 84.542969 175.503906 76.160156 187.734375 C 75.304688 188.984375 74.359375 190.363281 73.300781 191.890625 C 69.90625 196.800781 65.5625 199.015625 59.25 199.070312 L 58.765625 199.074219 L 58.765625 197.695312 C 58.765625 190.53125 52.9375 184.703125 45.773438 184.703125 L 16.441406 184.703125 C 9.277344 184.703125 3.449219 190.53125 3.449219 197.695312 L 3.449219 324.417969 C 3.449219 331.582031 9.277344 337.410156 16.441406 337.410156 L 45.773438 337.410156 C 52.9375 337.410156 58.765625 331.582031 58.765625 324.417969 L 58.765625 318.523438 C 61.359375 319.425781 63.949219 320.390625 66.617188 321.386719 C 79.683594 326.269531 94.496094 331.800781 116.484375 331.800781 L 192.832031 331.800781 C 196.085938 331.800781 199.183594 331.121094 201.996094 329.902344 C 204.757812 331.144531 207.746094 331.800781 210.8125 331.800781 C 210.816406 331.800781 210.816406 331.800781 210.820312 331.800781 L 349.960938 331.75 C 361.871094 331.746094 371.554688 322.054688 371.546875 310.148438 Z M 47.261719 324.417969 C 47.261719 325.226562 46.582031 325.90625 45.773438 325.90625 L 16.441406 325.90625 C 15.636719 325.90625 14.953125 325.226562 14.953125 324.417969 L 14.953125 197.695312 C 14.953125 196.886719 15.636719 196.207031 16.441406 196.207031 L 45.773438 196.207031 C 46.582031 196.207031 47.261719 196.886719 47.261719 197.695312 Z M 116.484375 320.296875 C 96.574219 320.296875 83.390625 315.371094 70.644531 310.613281 C 66.796875 309.175781 62.847656 307.699219 58.765625 306.386719 L 58.765625 210.574219 L 59.320312 210.574219 C 69.367188 210.488281 77.257812 206.402344 82.765625 198.429688 C 83.832031 196.886719 84.785156 195.5 85.648438 194.238281 C 93.378906 182.957031 93.378906 182.957031 105.273438 175.183594 C 128.25 160.167969 129.945312 152.707031 137.074219 121.300781 C 137.179688 120.835938 137.289062 120.363281 137.398438 119.882812 C 142.136719 122.398438 145.371094 126.5 147.214844 132.292969 C 152.644531 149.332031 144.085938 175.570312 137.390625 183.300781 C 135.914062 185.003906 135.570312 187.40625 136.507812 189.457031 C 137.441406 191.503906 139.484375 192.816406 141.738281 192.816406 L 207.492188 192.816406 C 213.898438 192.816406 219.113281 198.03125 219.113281 204.4375 C 219.113281 210.847656 213.898438 216.0625 207.492188 216.0625 L 162.160156 216.0625 C 158.984375 216.0625 156.40625 218.636719 156.40625 221.8125 C 156.40625 224.988281 158.984375 227.5625 162.160156 227.5625 L 216.992188 227.5625 C 223.398438 227.5625 228.613281 232.777344 228.613281 239.183594 C 228.613281 245.59375 223.398438 250.804688 216.992188 250.804688 L 162.160156 250.804688 C 158.984375 250.804688 156.40625 253.382812 156.40625 256.558594 C 156.40625 259.734375 158.984375 262.308594 162.160156 262.308594 L 211.019531 262.308594 C 217.429688 262.308594 222.640625 267.523438 222.640625 273.929688 C 222.640625 280.339844 217.429688 285.550781 211.019531 285.550781 L 162.160156 285.550781 C 158.984375 285.550781 156.40625 288.125 156.40625 291.304688 C 156.40625 294.480469 158.984375 297.054688 162.160156 297.054688 L 192.832031 297.054688 C 199.242188 297.054688 204.453125 302.269531 204.453125 308.675781 C 204.453125 315.082031 199.242188 320.296875 192.832031 320.296875 Z M 349.957031 320.25 L 212.8125 320.296875 C 214.808594 316.878906 215.957031 312.910156 215.957031 308.675781 C 215.957031 304.414062 214.796875 300.417969 212.78125 296.988281 C 224.710938 296.085938 234.144531 286.089844 234.144531 273.929688 C 234.144531 268.289062 232.113281 263.113281 228.746094 259.09375 C 235.546875 255.0625 240.117188 247.648438 240.117188 239.183594 C 240.117188 229.714844 234.394531 221.554688 226.222656 217.984375 C 228.984375 214.175781 230.617188 209.492188 230.617188 204.4375 C 230.617188 191.6875 220.242188 181.316406 207.492188 181.316406 L 200.667969 181.316406 L 200.644531 116.714844 C 200.644531 113.6875 201.734375 111.234375 203.984375 109.210938 L 259.898438 58.878906 C 267.558594 51.980469 273.464844 49.167969 280.28125 49.164062 C 280.285156 49.164062 280.289062 49.164062 280.292969 49.164062 C 287.101562 49.164062 293.007812 51.976562 300.671875 58.863281 L 356.625 109.15625 C 358.875 111.179688 359.96875 113.632812 359.96875 116.660156 L 360.046875 310.152344 C 360.046875 315.71875 355.523438 320.246094 349.957031 320.25 Z M 314.832031 242.414062 C 315.675781 249.355469 313.816406 255.691406 309.453125 260.734375 C 304.324219 266.664062 295.796875 270.640625 286.097656 271.757812 L 286.097656 279.074219 C 286.097656 282.25 283.519531 284.824219 280.34375 284.824219 C 277.167969 284.824219 274.59375 282.25 274.59375 279.074219 L 274.59375 271.675781 C 260.226562 269.699219 249.058594 260.617188 245.824219 247.648438 C 245.054688 244.566406 246.933594 241.445312 250.015625 240.675781 C 253.097656 239.910156 256.21875 241.78125 256.984375 244.863281 C 259.964844 256.8125 271.988281 260.800781 281.386719 260.566406 C 289.453125 260.371094 297.054688 257.484375 300.753906 253.210938 C 303 250.613281 303.867188 247.535156 303.414062 243.800781 C 302.34375 234.957031 294.964844 229.882812 279.496094 227.339844 C 254.875 223.300781 249.144531 210.8125 248.671875 201.050781 C 248.011719 187.523438 257.484375 176.1875 272.234375 172.839844 C 273.007812 172.667969 273.796875 172.515625 274.59375 172.386719 L 274.59375 164.90625 C 274.59375 161.730469 277.167969 159.15625 280.347656 159.15625 C 283.523438 159.15625 286.097656 161.730469 286.097656 164.90625 L 286.097656 172.339844 C 296.628906 173.898438 307.015625 180 312.207031 192.363281 C 313.433594 195.289062 312.058594 198.660156 309.128906 199.890625 C 306.199219 201.121094 302.828125 199.742188 301.601562 196.816406 C 296.609375 184.933594 284.535156 181.847656 274.777344 184.0625 C 267.40625 185.730469 259.695312 190.929688 260.160156 200.496094 C 260.304688 203.492188 260.746094 212.609375 281.359375 215.992188 C 288.996094 217.242188 312.242188 221.0625 314.832031 242.414062 Z M 280.296875 114.785156 C 291.589844 114.785156 300.78125 105.597656 300.78125 94.300781 C 300.78125 83.007812 291.589844 73.820312 280.296875 73.820312 C 269.003906 73.820312 259.8125 83.007812 259.8125 94.300781 C 259.8125 105.597656 269.003906 114.785156 280.296875 114.785156 Z M 280.296875 85.320312 C 285.25 85.320312 289.277344 89.351562 289.277344 94.300781 C 289.277344 99.253906 285.25 103.28125 280.296875 103.28125 C 275.34375 103.28125 271.316406 99.253906 271.316406 94.300781 C 271.316406 89.351562 275.34375 85.320312 280.296875 85.320312 Z M 280.296875 85.320312 " fill-opacity="1" fill-rule="nonzero"/></g></svg>