<svg xmlns="http://www.w3.org/2000/svg" xmlns:xlink="http://www.w3.org/1999/xlink" width="500" zoomAndPan="magnify" viewBox="0 0 375 374.999991" height="500" preserveAspectRatio="xMidYMid meet" version="1.0"><defs><clipPath id="8f078e2d4b"><path d="M 16.042969 87 L 358.792969 87 L 358.792969 287.984375 L 16.042969 287.984375 Z M 16.042969 87 " clip-rule="nonzero"/></clipPath></defs><rect x="-37.5" width="450" fill="#ffffff" y="-37.499999" height="449.999989" fill-opacity="1"/><rect x="-37.5" width="450" fill="#ffffff" y="-37.499999" height="449.999989" fill-opacity="1"/><g clip-path="url(#8f078e2d4b)"><path fill="#f24848" d="M 212.808594 87.167969 C 188.332031 87.167969 166.023438 105.515625 160.414062 129.109375 L 140.464844 129.109375 C 140.386719 129.105469 140.308594 129.105469 140.230469 129.109375 L 87.714844 129.109375 C 87.519531 129.101562 87.324219 129.101562 87.128906 129.109375 C 83.71875 129.269531 80.644531 132.132812 80.261719 135.503906 C 79.878906 138.875 82.332031 141.476562 85.738281 141.316406 L 132.425781 141.316406 L 130.875 155.195312 L 79.550781 155.195312 C 76.144531 155.195312 72.9375 157.945312 72.390625 161.339844 C 71.839844 164.734375 74.15625 167.484375 77.5625 167.484375 L 129.503906 167.484375 L 127.957031 181.363281 L 102.914062 181.363281 C 100.683594 181.277344 98.386719 182.421875 96.929688 184.34375 C 95.46875 186.269531 95.082031 188.664062 95.917969 190.589844 C 96.753906 192.511719 98.683594 193.65625 100.941406 193.570312 L 126.59375 193.570312 L 125.035156 207.53125 L 78.96875 207.53125 C 78.773438 207.523438 78.578125 207.523438 78.378906 207.53125 C 74.972656 207.695312 71.898438 210.558594 71.515625 213.929688 C 71.132812 217.300781 73.582031 219.902344 76.992188 219.742188 L 123.671875 219.742188 L 122.109375 233.703125 L 23.558594 233.703125 C 23.335938 233.691406 23.113281 233.691406 22.886719 233.703125 C 19.480469 233.898438 16.433594 236.773438 16.074219 240.136719 C 15.714844 243.503906 18.179688 246.082031 21.585938 245.910156 L 120.742188 245.910156 L 119.050781 261.042969 C 118.707031 264.28125 120.984375 266.8125 124.242188 266.808594 L 139.996094 266.808594 C 141.277344 278.835938 150.976562 287.714844 163.894531 287.714844 C 176.613281 287.714844 188.617188 278.679688 192.902344 266.808594 L 276.601562 266.808594 C 278.0625 278.75 287.84375 287.746094 300.648438 287.746094 C 313.449219 287.746094 325.308594 278.75 329.464844 266.808594 L 344.707031 266.808594 C 346.375 266.808594 348.082031 266.132812 349.429688 264.933594 C 350.777344 263.734375 351.65625 262.117188 351.855469 260.457031 L 357.402344 211.113281 C 358.074219 209.714844 358.246094 208.203125 357.882812 206.855469 L 358.914062 197.667969 C 359.054688 196.386719 358.785156 195.15625 358.140625 194.15625 L 331.363281 152.269531 C 330.636719 151.144531 329.484375 150.371094 328.105469 150.09375 L 281.277344 140.5625 L 281.910156 134.878906 C 282.253906 131.640625 279.976562 129.105469 276.722656 129.109375 L 255.882812 129.109375 C 255.550781 105.515625 237.285156 87.167969 212.808594 87.167969 Z M 211.441406 99.359375 C 231.320312 99.359375 245.5625 115.285156 243.34375 135.097656 C 241.164062 154.519531 224.007812 170.207031 204.605469 170.820312 C 204.332031 170.824219 204.054688 170.828125 203.78125 170.828125 C 185.535156 170.828125 171.808594 157.203125 171.386719 139.640625 C 171.367188 138.15625 171.441406 136.640625 171.613281 135.097656 C 173.835938 115.285156 191.5625 99.359375 211.441406 99.359375 Z M 211.03125 108.027344 C 210.828125 108.023438 210.621094 108.023438 210.417969 108.039062 C 207.03125 108.265625 204.023438 111.136719 203.671875 114.476562 L 201.28125 135.460938 C 201.121094 137.023438 201.574219 138.492188 202.546875 139.558594 L 216.53125 155.277344 C 217.871094 156.796875 220.0625 157.355469 222.273438 156.738281 C 224.484375 156.125 226.378906 154.429688 227.238281 152.296875 C 228.097656 150.164062 227.792969 147.921875 226.4375 146.414062 L 213.945312 132.367188 L 216.015625 113.894531 C 216.40625 110.6875 214.230469 108.128906 211.03125 108.027344 Z M 66.863281 129.105469 C 66.824219 129.105469 66.78125 129.105469 66.742188 129.109375 L 45.769531 129.109375 C 45.546875 129.097656 45.324219 129.097656 45.097656 129.109375 C 41.6875 129.292969 38.628906 132.175781 38.265625 135.546875 C 37.90625 138.917969 40.382812 141.5 43.792969 141.316406 L 64.765625 141.316406 C 66.984375 141.402344 69.265625 140.273438 70.730469 138.371094 C 72.191406 136.464844 72.601562 134.085938 71.796875 132.160156 C 70.992188 130.234375 69.101562 129.0625 66.863281 129.105469 Z M 144.714844 141.316406 L 159.074219 141.316406 C 159.445312 161.449219 172.820312 177.765625 191.992188 182.027344 C 195.078125 182.742188 198.351562 183.117188 201.789062 183.117188 C 202.066406 183.117188 202.34375 183.117188 202.621094 183.113281 C 226.800781 182.832031 248.820312 164.632812 254.488281 141.316406 L 268.957031 141.316406 L 262.734375 196.6875 C 262.363281 197.699219 262.242188 198.742188 262.390625 199.726562 L 261.515625 207.53125 L 137.269531 207.53125 L 139.371094 188.839844 C 139.804688 187.742188 139.933594 186.59375 139.746094 185.527344 L 142.402344 161.90625 C 142.546875 161.332031 142.609375 160.757812 142.59375 160.191406 Z M 279.957031 153.1875 L 321.625 161.632812 L 346.332031 200.257812 L 346.234375 201.136719 L 313.261719 192.066406 C 312.769531 191.910156 312.246094 191.824219 311.710938 191.808594 L 275.589844 191.8125 Z M 274.210938 204.023438 L 308.976562 204.023438 L 344.796875 213.90625 L 340.222656 254.605469 L 330.835938 254.605469 C 329.472656 243.476562 320.816406 234.949219 309.273438 233.84375 C 308.554688 233.753906 307.808594 233.703125 307.027344 233.703125 C 306.722656 233.703125 306.425781 233.710938 306.125 233.726562 C 293.535156 233.988281 282.027344 242.84375 277.960938 254.605469 L 268.535156 254.605469 L 272.96875 215.023438 Z M 58.117188 207.53125 C 58.074219 207.53125 58.035156 207.53125 57.996094 207.53125 L 47.425781 207.53125 C 47.230469 207.523438 47.035156 207.523438 46.835938 207.53125 C 43.429688 207.695312 40.355469 210.558594 39.972656 213.929688 C 39.589844 217.300781 42.039062 219.902344 45.449219 219.742188 L 56.019531 219.742188 C 58.234375 219.824219 60.519531 218.699219 61.980469 216.792969 C 63.445312 214.890625 63.851562 212.507812 63.046875 210.582031 C 62.246094 208.65625 60.355469 207.484375 58.117188 207.53125 Z M 135.964844 219.742188 L 260.125 219.742188 L 256.246094 254.605469 L 194.410156 254.605469 C 193.101562 242.601562 183.425781 233.703125 170.535156 233.703125 C 157.84375 233.703125 145.859375 242.753906 141.546875 254.605469 L 132.003906 254.605469 L 133.539062 241.113281 C 133.9375 240.0625 134.0625 238.96875 133.898438 237.945312 Z M 168.5625 245.910156 C 170.890625 245.910156 173.050781 246.453125 174.933594 247.417969 C 175.769531 247.84375 176.550781 248.359375 177.265625 248.941406 C 177.53125 249.160156 177.792969 249.390625 178.042969 249.628906 C 180.957031 252.421875 182.558594 256.523438 182.050781 261.042969 C 182.050781 261.042969 182.050781 261.046875 182.050781 261.046875 C 181.125 269.308594 174.15625 275.507812 165.867188 275.507812 C 157.582031 275.507812 151.4375 268.722656 152.363281 260.457031 C 152.480469 259.425781 152.691406 258.421875 152.988281 257.457031 C 153.0625 257.214844 153.140625 256.980469 153.222656 256.742188 C 153.773438 255.210938 154.542969 253.789062 155.488281 252.511719 C 155.636719 252.316406 155.785156 252.125 155.9375 251.933594 C 156.171875 251.652344 156.410156 251.375 156.660156 251.105469 C 156.742188 251.019531 156.828125 250.929688 156.914062 250.839844 C 159.886719 247.789062 164.027344 245.910156 168.5625 245.910156 Z M 305.277344 245.910156 C 313.449219 246.035156 319.460938 252.851562 318.542969 261.042969 C 318.535156 261.132812 318.53125 261.226562 318.527344 261.316406 C 317.308594 269.28125 310.085938 275.554688 302.011719 275.554688 C 293.730469 275.554688 287.90625 268.949219 288.828125 260.691406 C 289.753906 252.449219 297.019531 245.941406 305.277344 245.910156 Z M 305.277344 245.910156 " fill-opacity="1" fill-rule="nonzero"/></g></svg>